<?xml version="1.0" encoding="UTF-8" standalone="no"?>
<!-- Created with Inkscape (http://www.inkscape.org/) -->

<svg
   xmlns:dc="http://purl.org/dc/elements/1.1/"
   xmlns:cc="http://creativecommons.org/ns#"
   xmlns:rdf="http://www.w3.org/1999/02/22-rdf-syntax-ns#"
   xmlns:svg="http://www.w3.org/2000/svg"
   xmlns="http://www.w3.org/2000/svg"
   xmlns:sodipodi="http://sodipodi.sourceforge.net/DTD/sodipodi-0.dtd"
   xmlns:inkscape="http://www.inkscape.org/namespaces/inkscape"
   width="52.388531mm"
   height="52.89452mm"
   viewBox="0 0 52.388531 52.89452"
   version="1.1"
   id="svg8"
   inkscape:version="0.92.1 r15371">
  <defs
     id="defs2" />
  <sodipodi:namedview
     id="base"
     pagecolor="#ffffff"
     bordercolor="#666666"
     borderopacity="1.0"
     inkscape:pageopacity="0.0"
     inkscape:pageshadow="2"
     inkscape:zoom="2.8501371"
     inkscape:cx="100.38689"
     inkscape:cy="106.29733"
     inkscape:document-units="mm"
     inkscape:current-layer="layer1"
     showgrid="false"
     fit-margin-top="0"
     fit-margin-left="0"
     fit-margin-right="0"
     fit-margin-bottom="0"
     inkscape:window-width="1920"
     inkscape:window-height="1028"
     inkscape:window-x="1072"
     inkscape:window-y="430"
     inkscape:window-maximized="1" />
  <metadata
     id="metadata5">
    <rdf:RDF>
      <cc:Work
         rdf:about="">
        <dc:format>image/svg+xml</dc:format>
        <dc:type
           rdf:resource="http://purl.org/dc/dcmitype/StillImage" />
        <dc:title></dc:title>
      </cc:Work>
    </rdf:RDF>
  </metadata>
  <g
     inkscape:label="Layer 1"
     inkscape:groupmode="layer"
     id="layer1"
     transform="translate(-141.66004,-150.78865)">
    <path
       style="fill:#30689c;fill-opacity:1;stroke-width:0.26458335"
       d="m 145.4965,203.12162 c -1.30684,-0.64954 -2.37819,-1.62455 -3.20499,-2.91677 l -0.63147,-0.98693 v -21.4272 c 0,-21.15641 0.007,-21.43078 0.52917,-21.7104 0.70375,-0.37664 1.15962,-0.10667 2.86531,1.69684 1.93484,2.04581 2.34163,3.12256 2.81616,7.45422 0.97488,8.89896 2.38098,15.21515 3.48117,15.63733 0.22275,0.0855 0.77866,-0.26504 1.34475,-0.84792 1.33871,-1.37843 2.98296,-2.04609 5.39009,-2.18869 2.86839,-0.16992 4.57103,0.38052 6.42869,2.07832 0.87822,0.80264 1.7584,1.93873 2.20222,2.84252 0.65226,1.32823 0.73916,1.80146 0.73804,4.01904 -10e-4,2.2171 -0.0854,2.67331 -0.7146,3.86814 -0.39233,0.74503 -1.07636,1.66008 -1.52008,2.03344 -0.44372,0.37336 -0.80676,0.81229 -0.80676,0.97539 0,1.01168 6.94419,2.61128 16.13959,3.71779 3.86032,0.46452 4.81384,0.85511 6.9063,2.82903 1.90748,1.79942 2.14522,2.34394 1.34109,3.07167 -0.4422,0.40019 -2.28119,0.4354 -21.3651,0.40904 -20.27774,-0.028 -20.91184,-0.044 -21.93958,-0.55486 z m 45.81989,-5.78023 c -1.85129,-1.62957 -2.84334,-3.87006 -3.12783,-7.06403 -0.80024,-8.98426 -2.57819,-16.73454 -3.839,-16.73454 -0.21469,0 -0.68579,0.3511 -1.04687,0.78023 -0.36109,0.42913 -1.33567,1.11374 -2.16573,1.52135 -1.33824,0.65716 -1.79398,0.74002 -4.02276,0.73136 -2.19106,-0.009 -2.68327,-0.099 -3.83645,-0.70533 -1.70674,-0.89737 -3.38668,-2.64107 -4.15434,-4.31199 -0.49866,-1.08543 -0.60767,-1.77413 -0.60724,-3.83646 5.3e-4,-2.86011 0.51301,-4.20332 2.1892,-5.73883 0.57828,-0.52974 0.86359,-0.99461 0.7662,-1.24841 -0.40826,-1.0639 -5.36415,-2.20349 -15.61706,-3.59108 -4.50119,-0.60918 -6.25608,-1.33271 -8.10961,-3.34355 -1.19655,-1.29811 -1.32365,-2.00148 -0.46974,-2.59958 0.51986,-0.36413 2.94995,-0.41188 20.95938,-0.41188 18.34532,0 20.49064,0.0438 21.57082,0.44037 1.81863,0.66769 2.90996,1.60508 3.60971,3.10054 l 0.6335,1.35388 -0.0126,20.87596 c -0.008,13.23753 -0.10841,21.05493 -0.27441,21.3651 -0.40483,0.75643 -1.11604,0.58682 -2.44515,-0.58311 z"
       id="path3750"
       inkscape:connector-curvature="0" />
    <path
       style="fill:#30689c;fill-opacity:1;stroke-width:0.35086033"
       d="m 585.31395,769.39326 c -18.84124,-0.15623 -29.43287,-0.37517 -31.05114,-0.64186 -6.09631,-1.00468 -11.89065,-5.44367 -16.75422,-12.83525 l -2.07394,-3.15193 0.16462,-77.8968 c 0.10902,-51.59137 0.28966,-78.88714 0.5349,-80.82944 0.40243,-3.18711 0.91448,-4.08382 2.53529,-4.43981 1.6596,-0.36451 3.42533,0.78589 7.52357,4.90168 8.74226,8.77972 10.41706,12.62485 12.28102,28.19568 3.50125,29.24815 6.42679,45.41027 9.99592,55.22245 1.19649,3.28935 2.83317,5.89057 3.70634,5.89057 1.00165,0 2.77018,-1.1464 4.89085,-3.17034 6.49836,-6.20197 12.27505,-8.22415 23.50921,-8.22958 7.17397,-0.004 8.98872,0.33863 13.68356,2.57943 8.36139,3.99082 16.64322,14.34246 18.08124,22.60015 0.26104,1.49904 0.35658,5.04618 0.26421,9.80978 -0.13806,7.12036 -0.18853,7.57385 -1.10324,9.91341 -1.40719,3.59921 -3.71793,7.08506 -7.07619,10.67476 -3.54554,3.78988 -3.7206,4.47535 -1.47855,5.78928 5.68985,3.33448 23.62266,7.39443 47.27475,10.70292 4.14892,0.58036 10.54335,1.45251 14.20984,1.93813 7.75625,1.02728 11.30249,1.87932 14.80765,3.55773 5.78414,2.76969 15.89263,12.59736 15.89263,15.45112 0,1.14708 -1.60832,2.86373 -3.09258,3.30089 -3.24965,0.95713 -57.3789,1.24204 -126.72574,0.66703 z"
       id="path4557"
       inkscape:connector-curvature="0"
       transform="scale(0.26458333)" />
    <path
       style="fill:#136633;fill-opacity:1;stroke-width:0.35086033"
       d="m 580.05105,769.39385 c -15.53266,-0.15878 -24.46793,-0.38367 -25.96367,-0.65345 -6.02458,-1.08664 -11.59253,-5.3704 -16.53562,-12.72184 l -2.11823,-3.15024 0.16252,-78.12429 c 0.11113,-53.42374 0.28302,-78.99888 0.54366,-80.89054 0.41373,-3.00274 0.95242,-3.90888 2.52975,-4.25532 1.6596,-0.36451 3.42533,0.78589 7.52357,4.90168 9.32923,9.3692 10.43657,12.15889 12.81881,32.29389 3.45368,29.19105 7.56133,49.2086 11.31587,55.14497 1.6605,2.62544 2.63139,2.39532 7.16671,-1.69863 6.27873,-5.66771 11.24454,-7.50594 21.32765,-7.89499 5.4609,-0.21071 8.92861,0.12099 12.01165,1.14896 9.8731,3.29196 19.82951,14.4587 21.51346,24.12869 0.25462,1.46214 0.34891,5.05957 0.2562,9.77525 -0.13635,6.93593 -0.2092,7.62661 -1.03394,9.80222 -1.29868,3.42586 -3.71726,7.0884 -7.11664,10.77697 -1.65013,1.7905 -3.00024,3.53068 -3.00024,3.86705 0,3.82014 23.05594,9.32583 58.19822,13.89755 13.47949,1.75358 16.19136,2.36926 20.39449,4.63018 5.87436,3.15991 15.087,12.35201 15.087,15.05338 0,1.1487 -1.60976,2.86476 -3.09258,3.2968 -0.71125,0.20722 -6.66134,0.52092 -13.22243,0.6971 -13.37557,0.35916 -82.59572,0.34436 -118.76621,-0.0254 z"
       id="path4561"
       inkscape:connector-curvature="0"
       transform="scale(0.26458333)" />
  </g>
</svg>
